<svg width="241" height="74" viewBox="0 0 241 74" fill="none" xmlns="http://www.w3.org/2000/svg">
<path fill-rule="evenodd" clip-rule="evenodd" d="M105.979 22.7864C103.659 22.7864 100.906 23.2783 97.8972 26.7662V17.0051C97.8972 14.5392 95.8958 12.5333 93.4356 12.5333C90.9753 12.5333 88.9739 14.5392 88.9739 17.0051V48.8375C88.9739 51.3033 90.9753 53.3092 93.4356 53.3092C95.8958 53.3092 97.8972 51.3033 97.8972 48.8375V36.4827C97.8972 32.9309 99.5799 30.9697 102.646 30.9697C105.648 30.9697 107.228 32.8734 107.228 36.4827V48.8375C107.228 51.3033 109.23 53.3092 111.69 53.3092C114.15 53.3092 116.152 51.3033 116.152 48.8375V33.8891C116.145 26.9387 112.347 22.7864 105.979 22.7864ZM131.602 23.0037C127.969 23.0037 125.088 23.4764 122.265 24.5369C120.799 25.0863 119.817 26.5044 119.817 28.0632C119.817 30.1457 121.468 31.7747 123.578 31.7747C124.011 31.7747 124.374 31.7108 124.871 31.5447C126.586 31.0081 128.396 30.7526 130.417 30.7526C135.21 30.7526 136.229 33.4037 136.242 35.646C134.579 35.103 132.482 34.6047 129.556 34.6047C121.933 34.6047 117.561 38.099 117.561 44.1998V44.3084C117.561 49.8214 121.691 53.5266 127.835 53.5266C131.296 53.5266 134.069 52.4725 136.28 50.3133C136.657 51.8912 138.167 53.3157 140.487 53.3157C142.928 53.3157 144.84 51.4248 144.84 49.0101V35.8312C144.84 31.6853 143.757 28.4912 141.609 26.3447C139.391 24.128 136.026 23.0037 131.602 23.0037ZM130.308 47.1192C127.778 47.1192 126.21 45.9182 126.21 43.9826V43.874C126.21 41.5678 128.135 40.2519 131.494 40.2519C133.215 40.2519 134.929 40.5904 136.351 41.2037V42.4239C136.351 45.1836 133.865 47.1192 130.308 47.1192ZM156.797 26.8433C159.105 24.1155 161.947 22.7867 165.466 22.7867C172.177 22.7867 178.965 28.0442 178.965 38.0993V38.2079C178.965 42.8393 177.544 46.7617 174.861 49.5597C172.407 52.1214 169.073 53.5268 165.466 53.5268C161.992 53.5268 159.232 52.3386 156.842 49.8089V57.4747C156.842 59.9406 154.841 61.9464 152.38 61.9464C149.92 61.9464 147.919 59.9406 147.919 57.4747V27.4757C147.919 25.0098 149.92 23.0039 152.38 23.0039C154.63 23.0039 156.491 24.6777 156.797 26.8433ZM170.048 38.0993C170.048 33.7617 167.174 30.4845 163.362 30.4845C159.525 30.4845 156.734 33.685 156.734 38.0993V38.2079C156.734 42.6221 159.519 45.8226 163.362 45.8226C167.238 45.8226 170.048 42.6221 170.048 38.2079V38.0993ZM198.571 22.7867C195.053 22.7867 192.21 24.1155 189.903 26.8433C189.597 24.6777 187.736 23.0039 185.486 23.0039C183.025 23.0039 181.024 25.0098 181.024 27.4757V57.4747C181.024 59.9406 183.025 61.9464 185.486 61.9464C187.946 61.9464 189.947 59.9406 189.947 57.4747V49.8089C192.337 52.3386 195.097 53.5268 198.571 53.5268C202.179 53.5268 205.512 52.1214 207.966 49.5597C210.649 46.7617 212.071 42.8393 212.071 38.2079V38.0993C212.071 28.0442 205.283 22.7867 198.571 22.7867ZM196.468 30.4845C200.279 30.4845 203.154 33.7617 203.154 38.0993V38.2079C203.154 42.6221 200.343 45.8226 196.468 45.8226C192.624 45.8226 189.839 42.6221 189.839 38.2079V38.0993C189.839 33.685 192.631 30.4845 196.468 30.4845ZM231.976 26.3768C232.805 24.1664 234.283 23.0038 236.253 23.0038C238.63 23.0038 240.498 24.8244 240.491 27.137C240.491 27.8077 240.275 28.7787 240.083 29.2259L230.019 53.45C227.489 59.589 224.85 61.7674 219.936 61.7674C218.202 61.7674 216.87 61.5374 215.34 60.9881C214.289 60.6048 212.517 59.6082 212.517 57.2446C212.517 54.9193 214.346 53.533 216.112 53.533C216.813 53.533 217.233 53.6544 217.571 53.7694C218.266 53.9866 218.648 54.076 219.177 54.076C220.516 54.076 221.077 53.8588 221.752 52.562L221.956 52.0765L212.166 29.3409C211.943 28.7787 211.707 27.9099 211.707 27.303C211.707 24.85 213.6 22.9974 216.112 22.9974C218.183 22.9974 219.585 24.0834 220.388 26.3193L226.284 42.2067L231.976 26.3768Z" fill="#333333"/>
<path d="M63.9739 18.7786V44.9078C63.9739 55.2784 55.5339 63.6863 45.1237 63.6863H43.217L33.4805 73.3795C33.0992 73.7594 32.5717 74 31.987 74C31.4467 74 30.9574 73.8037 30.5824 73.4745L30.4172 73.3099L30.4108 73.3036L20.7569 63.6863H18.8439C8.44003 63.6863 0 55.2784 0 44.9078V18.7786C0 8.40794 8.44003 0 18.8503 0H45.1237C55.5339 0 63.9739 8.40794 63.9739 18.7786Z" fill="#FFD666"/>
<path d="M14.895 36.197C13.0392 36.197 11.9814 38.3036 13.0582 39.8248C17.2449 45.7501 24.1677 49.6133 31.99 49.6133C39.8123 49.6133 46.7289 45.7437 50.9155 39.8248C51.9923 38.3036 50.9345 36.197 49.0787 36.197H14.895Z" fill="white"/>
<path d="M25.764 27.2298H14.5658V21.6036C14.5658 18.4977 17.074 15.9774 20.1649 15.9774C23.2558 15.9774 25.764 18.4977 25.764 21.6036V27.2298Z" fill="white"/>
<path d="M49.4148 27.2298H38.2166V21.6036C38.2166 18.4977 40.7248 15.9774 43.8157 15.9774C46.9066 15.9774 49.4148 18.4977 49.4148 21.6036V27.2298Z" fill="white"/>
</svg>
